<?xml version="1.0" encoding="utf-8"?>
<!-- Generator: Adobe Illustrator 26.0.0, SVG Export Plug-In . SVG Version: 6.00 Build 0)  -->
<svg version="1.1" id="Layer_1" xmlns="http://www.w3.org/2000/svg" xmlns:xlink="http://www.w3.org/1999/xlink" x="0px" y="0px"
	 viewBox="0 0 186.2 200" style="enable-background:new 0 0 186.2 200;" xml:space="preserve">
<path fill="#ffffff" class="st0" d="M79.4,104.4h13.7l0,0l0,0h13.7l-13.7-33L79.4,104.4z M93.1,19.2L93.1,19.2L93.1,19.2L17.9,46l11.5,99.4
	l63.7,35.3l0,0l0,0l63.7-35.3L168.3,46L93.1,19.2z M140,142.5h-17.5l0,0l-9.5-23.6H93l0,0l0,0H73l-9.5,23.6l0,0H46.2l0,0L93.1,37.1
	l0,0l0,0l0,0l0,0L140,142.5L140,142.5z M166.2,200H20c-11,0-20-9-20-20V20C0,9,9,0,20,0h146.2c11,0,20,9,20,20v160
	C186.2,191,177.2,200,166.2,200z"/>
</svg>
