<?xml version="1.0" encoding="utf-8"?>
<!-- Generator: Adobe Illustrator 27.0.1, SVG Export Plug-In . SVG Version: 6.00 Build 0)  -->
<svg version="1.1" id="Layer_1" xmlns="http://www.w3.org/2000/svg" xmlns:xlink="http://www.w3.org/1999/xlink" x="0px" y="0px"
	 width="40px" height="43px" viewBox="0 0 40 43" enable-background="new 0 0 40 43" xml:space="preserve">
<path fill="#206DDF" d="M17.1,22.4H20l0,0l0,0h2.9L20,15.3L17.1,22.4z M20,4.1L20,4.1L20,4.1L3.8,9.9l2.5,21.4L20,38.8l0,0l0,0
	l13.7-7.6l2.5-21.4L20,4.1z M30.1,30.6h-3.8l0,0l-2-5.1H20l0,0l0,0h-4.3l-2,5.1l0,0H9.9l0,0L20,8l0,0l0,0l0,0l0,0L30.1,30.6
	L30.1,30.6z M35.7,43H4.3C1.9,43,0,41,0,38.7V4.3C0,1.9,1.9,0,4.3,0h31.4C38.1,0,40,1.9,40,4.3v34.4C40,41,38.1,43,35.7,43z"/>
</svg>
