<?xml version="1.0" encoding="utf-8"?>
<!-- Generator: Adobe Illustrator 27.0.1, SVG Export Plug-In . SVG Version: 6.00 Build 0)  -->
<svg width="142" height="142" viewBox="0 0 142 142" fill="none" xmlns="http://www.w3.org/2000/svg">
  <rect width="142" height="142" rx="20" fill="#05991D"/>
  <g clip-path="url(#clip0_0_1)">
    <path d="M85.1433 72.2359C85.1433 65.7241 90.489 60.441 97.0837 60.441C103.678 60.441 109.024 65.7216 109.024 72.2359V75.9572V75.9598C109.024 90.3975 97.0657 102.205 82.4524 102.205C67.9679 102.205 56.0996 90.6061 55.8884 76.3464C55.9992 80.4544 58.0051 84.4886 61.175 87.0831C63.7139 89.1562 66.9739 90.4102 70.5146 90.4102C74.5445 90.4102 78.2062 88.7874 80.861 86.1776L80.8379 86.1547C83.4953 83.5297 85.1484 79.9151 85.1484 75.9572V72.2359H85.1433Z" fill="white"/>
    <mask id="mask0_0_1" style="mask-type:luminance" maskUnits="userSpaceOnUse" x="55" y="60" width="55" height="43">
      <path d="M85.1433 72.2359C85.1433 65.7241 90.489 60.441 97.0837 60.441C103.678 60.441 109.024 65.7216 109.024 72.2359V75.9572V75.9598C109.024 90.3975 97.0657 102.205 82.4524 102.205C67.9679 102.205 56.0996 90.6061 55.8884 76.3464C55.9992 80.4544 58.0051 84.4886 61.175 87.0831C63.7139 89.1562 66.9739 90.4102 70.5146 90.4102C74.5445 90.4102 78.2062 88.7874 80.861 86.1776L80.8379 86.1547C83.4953 83.5297 85.1484 79.9151 85.1484 75.9572V72.2359H85.1433Z" fill="white"/>
    </mask>
    <g mask="url(#mask0_0_1)">
      <path d="M109.021 60.441H55.8857V102.205H109.021V60.441Z" fill="white"/>
    </g>
    <path d="M55.8808 75.9572V72.2359C55.8808 65.7241 50.535 60.4435 43.9404 60.4435C37.3458 60.441 32 65.7241 32 72.2359V75.9572C32 86.4294 36.3312 95.9452 43.3044 102.833L43.3533 102.831C50.3265 109.719 59.9442 113.997 70.5147 113.997C81.0851 113.997 90.7003 109.719 97.6734 102.831H97.7224C104.696 95.9426 109.027 86.4269 109.027 75.9572C109.027 90.3949 97.0683 102.205 82.455 102.205C67.8366 102.205 55.8808 90.3949 55.8808 75.9572Z" fill="white"/>
    <mask id="mask1_0_1" style="mask-type:luminance" maskUnits="userSpaceOnUse" x="32" y="60" width="78" height="54">
      <path d="M55.8808 75.9572V72.2359C55.8808 65.7241 50.535 60.4435 43.9404 60.4435C37.3458 60.441 32 65.7241 32 72.2359V75.9572C32 86.4294 36.3312 95.9452 43.3044 102.833L43.3533 102.831C50.3265 109.719 59.9442 113.997 70.5147 113.997C81.0851 113.997 90.7003 109.719 97.6734 102.831H97.7224C104.696 95.9426 109.027 86.4269 109.027 75.9572C109.027 90.3949 97.0683 102.205 82.455 102.205C67.8366 102.205 55.8808 90.3949 55.8808 75.9572Z" fill="white"/>
    </mask>
    <g mask="url(#mask1_0_1)">
      <path d="M109.022 60.4408H32V113.997H109.022V60.4408Z" fill="white"/>
    </g>
    <path d="M43.9739 53.0898C50.5869 53.0898 55.9477 47.7943 55.9477 41.2619C55.9477 34.7295 50.5869 29.4339 43.9739 29.4339C37.3609 29.4339 32 34.7295 32 41.2619C32 47.7943 37.3609 53.0898 43.9739 53.0898Z" fill="white"/>
    <path d="M91.4238 52.0139V30.5099C91.4238 28.0197 93.4684 26 95.9893 26H99.1077C101.629 26 103.673 28.0197 103.673 30.5099V52.0139C103.673 54.5041 101.629 56.5238 99.1077 56.5238H95.9893C93.4684 56.5238 91.4238 54.5041 91.4238 52.0139Z" fill="white"/>
    <path d="M86.6651 35.2131H108.434C110.955 35.2131 113 37.2327 113 39.723V42.8033C113 45.2935 110.955 47.3132 108.434 47.3132H86.6651C84.1442 47.3132 82.0996 45.2935 82.0996 42.8033V39.7204C82.0996 37.2302 84.1416 35.2131 86.6651 35.2131Z" fill="white"/>
  </g>
  <defs>
    <clipPath id="clip0_0_1">
      <rect width="81" height="88" fill="white" transform="translate(32 26)"/>
    </clipPath>
  </defs>
</svg>

